<svg width="70" height="70" viewBox="0 0 70 70" fill="none" xmlns="http://www.w3.org/2000/svg">
<circle cx="35" cy="35" r="35" fill="white" fill-opacity="0.1"/>
<path opacity="0.6" d="M39.1442 30.3632V28.4632L41.5796 23.5926C41.7098 23.3318 41.6958 23.022 41.5426 22.7739C41.3893 22.5262 41.1186 22.375 40.8269 22.375H37.4615C37.2385 22.375 36.9771 22.375 36.9771 22.375C36.9771 22.375 36.1881 22.375 35.7534 22.375C35.3385 22.375 34.5296 22.375 34.5296 22.375C34.5296 22.375 34.3193 22.375 34.0962 22.375H29.0481C28.7564 22.375 28.4857 22.5262 28.3325 22.7739C28.1792 23.022 28.1652 23.3318 28.2955 23.5926L30.7308 28.4632V30.3632C26.988 33.1167 24 38.6598 24 42.9695C24 49.2981 29.5604 49.2981 34.9375 49.2981C40.3146 49.2981 45.875 49.2981 45.875 42.9695C45.875 38.6598 42.887 33.1167 39.1442 30.3632ZM32.4135 28.4632H37.4615V30.3632H32.4135V28.4632ZM33.7494 24.0067C33.7494 24.0067 34.9375 24.0067 35.3454 24.0067C35.7534 24.0067 36.1613 24.0067 36.5692 24.0067H37.8191H38.6088H39.4247L37.7828 27.4231H32.0922L30.4503 24.0067H33.7494ZM34.9375 47.6154C28.3612 47.6154 25.6827 47.1951 25.6827 42.9695C25.6827 39.5655 28.1459 34.259 31.8355 31.6298H38.0395C41.7291 34.259 44.1923 39.5655 44.1923 42.9695C44.1923 47.1951 41.5138 47.6154 34.9375 47.6154Z" fill="white" stroke="white" stroke-width="1.2"/>
</svg>
