<svg width="70" height="70" viewBox="0 0 70 70" fill="none" xmlns="http://www.w3.org/2000/svg">
<circle cx="35" cy="35" r="35" fill="#5936E3" fill-opacity="0.1"/>
<path fill-rule="evenodd" clip-rule="evenodd" d="M19.332 21C19.332 20.0796 20.0782 19.3334 20.9987 19.3334H34.332C34.7741 19.3334 35.198 19.509 35.5105 19.8215L52.1772 36.4882C52.8281 37.1391 52.8281 38.1943 52.1772 38.8452L38.8439 52.1786C38.193 52.8294 37.1377 52.8294 36.4869 52.1786L19.8202 35.5119C19.5076 35.1993 19.332 34.7754 19.332 34.3334V21ZM22.6654 22.6667V33.643L37.6654 48.643L48.6417 37.6667L33.6417 22.6667H22.6654Z" fill="#5936E3"/>
<path d="M30.9987 28.5C30.9987 29.8808 29.8794 31 28.4987 31C27.118 31 25.9987 29.8808 25.9987 28.5C25.9987 27.1193 27.118 26 28.4987 26C29.8794 26 30.9987 27.1193 30.9987 28.5Z" fill="#5936E3"/>
</svg>
