<svg width="70" height="70" viewBox="0 0 70 70" fill="none" xmlns="http://www.w3.org/2000/svg">
<circle cx="35" cy="35" r="35" fill="#5936E3" fill-opacity="0.1"/>
<path fill-rule="evenodd" clip-rule="evenodd" d="M34.9987 19.1666C35.63 19.1666 36.2071 19.5233 36.4895 20.0879L40.7876 28.6843L50.2386 30.059C50.8664 30.1503 51.3878 30.59 51.5838 31.1933C51.7799 31.7966 51.6164 32.4588 51.1622 32.9016L44.2837 39.6082L45.831 49.0641C45.9333 49.6891 45.6726 50.318 45.1581 50.6873C44.6437 51.0565 43.9644 51.1024 43.4051 50.8055L34.9987 46.3451L26.5924 50.8055C26.0331 51.1024 25.3538 51.0565 24.8394 50.6873C24.3249 50.318 24.0642 49.6891 24.1665 49.0641L25.7138 39.6082L18.8352 32.9016C18.3811 32.4588 18.2176 31.7966 18.4136 31.1933C18.6097 30.59 19.1311 30.1503 19.7588 30.059L29.2099 28.6843L33.508 20.0879C33.7904 19.5233 34.3675 19.1666 34.9987 19.1666ZM34.9987 24.5601L31.802 30.9536C31.558 31.4415 31.0909 31.7791 30.5511 31.8576L23.5794 32.8717L28.6622 37.8275C29.0517 38.2072 29.2314 38.7531 29.1435 39.2899L27.9988 46.2858L34.2176 42.986C34.7061 42.7268 35.2914 42.7268 35.7799 42.986L41.9987 46.2858L40.854 39.2899C40.7661 38.7531 40.9458 38.2072 41.3352 37.8275L46.4181 32.8717L39.4463 31.8576C38.9066 31.7791 38.4394 31.4415 38.1955 30.9536L34.9987 24.5601Z" fill="#5936E3"/>
</svg>
