<svg width="70" height="70" viewBox="0 0 70 70" fill="none" xmlns="http://www.w3.org/2000/svg">
<circle cx="35" cy="35" r="35" fill="#5936E3" fill-opacity="0.1"/>
<path fill-rule="evenodd" clip-rule="evenodd" d="M28.3346 20C28.3346 19.0796 29.0808 18.3334 30.0013 18.3334H40.0013C40.9218 18.3334 41.668 19.0796 41.668 20H45.0013C46.8423 20 48.3346 21.4924 48.3346 23.3334V48.3334C48.3346 50.1743 46.8422 51.6667 45.0013 51.6667H25.0013C23.1604 51.6667 21.668 50.1743 21.668 48.3334V23.3334C21.668 21.4924 23.1604 20 25.0013 20H28.3346ZM28.3346 23.3334H25.0013V48.3334H45.0013V23.3334H41.668V25C41.668 25.9205 40.9218 26.6667 40.0013 26.6667H30.0013C29.0808 26.6667 28.3346 25.9205 28.3346 25V23.3334ZM38.3346 21.6667H31.668V23.3334H38.3346V21.6667ZM41.1798 32.9882C41.8307 33.6391 41.8307 34.6943 41.1798 35.3452L34.5131 42.0119C33.8623 42.6628 32.807 42.6628 32.1561 42.0119L28.8228 38.6786C28.1719 38.0277 28.1719 36.9724 28.8228 36.3215C29.4737 35.6707 30.5289 35.6707 31.1798 36.3215L33.3346 38.4764L38.8228 32.9882C39.4737 32.3373 40.5289 32.3373 41.1798 32.9882Z" fill="#5936E3"/>
</svg>
