<svg width="70" height="70" viewBox="0 0 70 70" fill="none" xmlns="http://www.w3.org/2000/svg">
<circle cx="35" cy="35" r="35" fill="#5936E3" fill-opacity="0.1"/>
<path fill-rule="evenodd" clip-rule="evenodd" d="M46.1772 23.8215C46.8281 24.4724 46.8281 25.5277 46.1772 26.1786L26.1772 46.1786C25.5263 46.8294 24.4711 46.8294 23.8202 46.1786C23.1693 45.5277 23.1693 44.4724 23.8202 43.8215L43.8202 23.8215C44.4711 23.1707 45.5263 23.1707 46.1772 23.8215Z" fill="#5936E3"/>
<path d="M43.332 46.6667C45.173 46.6667 46.6654 45.1743 46.6654 43.3334C46.6654 41.4924 45.173 40 43.332 40C41.4911 40 39.9987 41.4924 39.9987 43.3334C39.9987 45.1743 41.4911 46.6667 43.332 46.6667Z" fill="#5936E3"/>
<path d="M26.6654 30C28.5063 30 29.9987 28.5077 29.9987 26.6667C29.9987 24.8258 28.5063 23.3334 26.6654 23.3334C24.8244 23.3334 23.332 24.8258 23.332 26.6667C23.332 28.5077 24.8244 30 26.6654 30Z" fill="#5936E3"/>
</svg>
